<svg xmlns="http://www.w3.org/2000/svg" viewBox="270 40 480 480">
  <rect x="270" y="40" width="480" height="480" rx="60" fill="#020617"/>
  <g fill="#c29400">
    <path 
      fill-rule="evenodd"
      d="M 717.49 66.62 L 510.61 495.42 A 1.72 1.71 12.4 0 1 509.10 496.38 Q 439.00 497.87 383.46 456.82 C 350.77 432.66 325.37 398.24 312.75 359.24 Q 296.90 310.28 304.80 258.87 Q 305.06 257.17 307.05 256.25 C 396.03 215.25 568.78 134.30 716.92 66.04 A 0.43 0.43 0.0 0 1 717.49 66.62 Z M 365.30 276.58 A 0.18 0.17 11.8 0 1 365.53 276.43 L 473.34 309.80 A 0.83 0.82 3.6 0 1 473.34 309.80 L 473.91 310.44 L 497.74 437.22 A 0.34 0.33 -3.2 0 1 497.38 437.62 C 451.68 432.75 411.44 406.53 387.23 367.78 C 370.57 341.12 362.01 308.24 365.30 276.58 Z" 
    />
    <path d="M 308.53 243.39 A 0.38 0.38 0.0 0 1 308.00 242.95 Q 318.45 200.78 343.97 165.97 Q 382.43 113.53 442.50 91.93 C 495.55 72.86 555.05 77.35 604.20 104.93 A 0.47 0.46 45.4 0 1 604.20 105.75 Q 602.68 106.56 601.09 107.30 Q 544.23 133.71 544.21 133.72 C 542.52 134.45 538.62 133.02 536.49 132.64 Q 485.01 123.63 441.00 146.53 C 413.57 160.81 391.37 183.35 376.46 210.46 Q 375.50 212.21 373.28 213.25 Q 350.31 224.05 308.53 243.39 Z" />
    <path d="M 523.51 495.53 A 0.46 0.46 0.0 0 1 523.04 494.87 L 550.99 436.95 A 3.83 3.80 -86.3 0 1 553.21 434.99 C 589.71 422.72 621.00 397.64 640.10 364.58 Q 657.24 334.93 660.11 300.54 Q 662.90 267.11 650.62 234.06 A 4.28 4.26 47.7 0 1 650.77 230.73 L 675.17 180.17 A 0.52 0.52 0.0 0 1 676.09 180.13 C 698.92 219.19 710.38 264.70 705.89 309.44 C 696.19 406.12 621.22 485.38 523.51 495.53 Z" />
  </g>
</svg>